<svg id="visual" viewBox="0 0 900 600" width="900" height="600" xmlns="http://www.w3.org/2000/svg" xmlns:xlink="http://www.w3.org/1999/xlink" version="1.1"><rect x="0" y="0" width="900" height="600" fill="#ffffff"></rect><path d="M0 169L18.8 170.8C37.7 172.7 75.3 176.3 112.8 175.5C150.3 174.7 187.7 169.3 225.2 144.2C262.7 119 300.3 74 337.8 79.5C375.3 85 412.7 141 450.2 156.2C487.7 171.3 525.3 145.7 562.8 146.2C600.3 146.7 637.7 173.3 675.2 163.3C712.7 153.3 750.3 106.7 787.8 86.3C825.3 66 862.7 72 881.3 75L900 78L900 0L881.3 0C862.7 0 825.3 0 787.8 0C750.3 0 712.7 0 675.2 0C637.7 0 600.3 0 562.8 0C525.3 0 487.7 0 450.2 0C412.7 0 375.3 0 337.8 0C300.3 0 262.7 0 225.2 0C187.7 0 150.3 0 112.8 0C75.3 0 37.7 0 18.8 0L0 0Z" fill="#45A29E" stroke-linecap="round" stroke-linejoin="miter"></path></svg>