<svg id="visual" viewBox="0 0 1200 200" width="1200" height="200" xmlns="http://www.w3.org/2000/svg" xmlns:xlink="http://www.w3.org/1999/xlink" version="1.1"><rect x="0" y="0" width="1200" height="200" fill="#FFFFFF"></rect><path d="M0 77L22.2 74.2C44.3 71.3 88.7 65.7 133.2 75C177.7 84.3 222.3 108.7 266.8 105.3C311.3 102 355.7 71 400 71.8C444.3 72.7 488.7 105.3 533.2 115.3C577.7 125.3 622.3 112.7 666.8 104.3C711.3 96 755.7 92 800 92.2C844.3 92.3 888.7 96.7 933.2 97.5C977.7 98.3 1022.3 95.7 1066.8 86.7C1111.3 77.7 1155.7 62.3 1177.8 54.7L1200 47L1200 0L1177.8 0C1155.7 0 1111.3 0 1066.8 0C1022.3 0 977.7 0 933.2 0C888.7 0 844.3 0 800 0C755.7 0 711.3 0 666.8 0C622.3 0 577.7 0 533.2 0C488.7 0 444.3 0 400 0C355.7 0 311.3 0 266.8 0C222.3 0 177.7 0 133.2 0C88.7 0 44.3 0 22.2 0L0 0Z" fill="#45A29E" stroke-linecap="round" stroke-linejoin="miter"></path></svg>