<svg id="visual" viewBox="0 0 1200 200" width="1200" height="200" xmlns="http://www.w3.org/2000/svg" xmlns:xlink="http://www.w3.org/1999/xlink" version="1.1"><rect x="0" y="0" width="1200" height="200" fill="#C5C6C7"></rect><path d="M0 121L22.2 123.8C44.3 126.7 88.7 132.3 133.2 123C177.7 113.7 222.3 89.3 266.8 92.7C311.3 96 355.7 127 400 126.2C444.3 125.3 488.7 92.7 533.2 82.7C577.7 72.7 622.3 85.3 666.8 93.7C711.3 102 755.7 106 800 105.8C844.3 105.7 888.7 101.3 933.2 100.5C977.7 99.7 1022.3 102.3 1066.8 111.3C1111.3 120.3 1155.7 135.7 1177.8 143.3L1200 151L1200 201L1177.8 201C1155.7 201 1111.3 201 1066.8 201C1022.3 201 977.7 201 933.2 201C888.7 201 844.3 201 800 201C755.7 201 711.3 201 666.8 201C622.3 201 577.7 201 533.2 201C488.7 201 444.3 201 400 201C355.7 201 311.3 201 266.8 201C222.3 201 177.7 201 133.2 201C88.7 201 44.3 201 22.2 201L0 201Z" fill="#45A29E" stroke-linecap="round" stroke-linejoin="miter"></path></svg>