<svg id="visual" viewBox="0 0 900 600" width="900" height="600" xmlns="http://www.w3.org/2000/svg" xmlns:xlink="http://www.w3.org/1999/xlink" version="1.1"><rect x="0" y="0" width="900" height="600" fill="#ffffff"></rect><path d="M0 429L18.8 427.2C37.7 425.3 75.3 421.7 112.8 422.5C150.3 423.3 187.7 428.7 225.2 453.8C262.7 479 300.3 524 337.8 518.5C375.3 513 412.7 457 450.2 441.8C487.7 426.7 525.3 452.3 562.8 451.8C600.3 451.3 637.7 424.7 675.2 434.7C712.7 444.7 750.3 491.3 787.8 511.7C825.3 532 862.7 526 881.3 523L900 520L900 601L881.3 601C862.7 601 825.3 601 787.8 601C750.3 601 712.7 601 675.2 601C637.7 601 600.3 601 562.8 601C525.3 601 487.7 601 450.2 601C412.7 601 375.3 601 337.8 601C300.3 601 262.7 601 225.2 601C187.7 601 150.3 601 112.8 601C75.3 601 37.7 601 18.8 601L0 601Z" fill="#45A29E" stroke-linecap="round" stroke-linejoin="miter"></path></svg>